<svg class="hs-main-logo" id="hs_infra_logo" data-name="Layer 1" xmlns="http://www.w3.org/2000/svg" viewBox="0 0 300 98.73">
<defs><style>.hsi-1 {
        fill: #253d8f;
      }

      .hsi-2 {
        fill: #23418d;
      }

      .hsi-3 {
        fill: #5890e1;
      }</style></defs>
<g>
<g>
<path class="hsi-2" d="M0,82.14h2.7v16.44H0v-16.44Z"/>
<path class="hsi-2" d="M16.63,91.89v6.7h-2.56v-6.48c0-2.28-.96-3.5-2.87-3.5-2.02,0-3.22,1.48-3.22,3.92v6.06h-2.54v-12.03h2.21l.28,1.57c.75-.94,1.9-1.71,3.85-1.71,2.65,0,4.84,1.46,4.84,5.47Z"/>
<path class="hsi-2" d="M17.71,86.56h2.09v-1.13c0-2.16,1.03-3.29,3.36-3.29h2.42v2.23h-2.09c-.82,0-1.18.35-1.18,1.17v1.01h3.27v2.23h-3.22v9.8h-2.56v-9.8h-2.09v-2.23Z"/>
<path class="hsi-2" d="M33.55,86.56v2.37h-1.13c-2.26,0-2.98,1.76-2.98,3.62v6.04h-2.54v-12.03h2.26l.28,1.81c.61-1.01,1.57-1.81,3.55-1.81h.56Z"/>
<path class="hsi-2" d="M46.25,96.38v2.21h-1.34c-1.64,0-2.21-.73-2.21-1.93-.8,1.22-2.02,2.07-3.97,2.07-2.63,0-4.46-1.29-4.46-3.52,0-2.47,1.79-3.85,5.15-3.85h3.03v-.73c0-1.34-.96-2.16-2.63-2.16-1.5,0-2.51.7-2.7,1.76h-2.49c.26-2.35,2.28-3.81,5.31-3.81,3.19,0,5.03,1.53,5.03,4.37v4.82c0,.61.26.78.77.78h.52ZM42.45,93.23h-3.15c-1.57,0-2.44.59-2.44,1.81,0,1.01.85,1.71,2.23,1.71,2.11,0,3.34-1.25,3.36-3.1v-.42Z"/>
<path class="hsi-2" d="M49.61,94.61c.09,1.25,1.17,2.14,3.01,2.14,1.57,0,2.61-.61,2.61-1.57,0-1.29-1.1-1.39-2.96-1.62-2.75-.33-4.91-.92-4.91-3.41,0-2.28,2.04-3.76,4.93-3.74,2.96,0,5.05,1.36,5.22,3.83h-2.49c-.14-1.1-1.17-1.88-2.68-1.88s-2.49.61-2.49,1.57c0,1.13,1.15,1.27,2.89,1.46,2.75.33,4.98.89,4.98,3.57,0,2.3-2.18,3.76-5.1,3.76-3.22,0-5.43-1.5-5.5-4.11h2.49Z"/>
<path class="hsi-2" d="M60.56,88.79h-2.09v-2.23h2.09v-3.36h2.56v3.36h2.94v2.23h-2.94v6.27c0,.94.33,1.29,1.29,1.29h1.79v2.23h-2.35c-2.3,0-3.29-1.08-3.29-3.27v-6.53Z"/>
<path class="hsi-2" d="M74.46,86.56v2.37h-1.13c-2.26,0-2.98,1.76-2.98,3.62v6.04h-2.54v-12.03h2.26l.28,1.81c.61-1.01,1.57-1.81,3.55-1.81h.56Z"/>
<path class="hsi-2" d="M84.28,86.56h2.54v12.03h-2.23l-.28-1.53c-.75.92-1.86,1.67-3.71,1.67-2.56,0-4.74-1.36-4.74-5.47v-6.7h2.54v6.41c0,2.35.94,3.55,2.8,3.55s3.1-1.46,3.1-3.95v-6.01Z"/>
<path class="hsi-2" d="M88.86,92.59c0-3.71,2.4-6.18,6.04-6.18,3.1,0,5.03,1.71,5.52,4.44h-2.65c-.33-1.41-1.34-2.28-2.91-2.28-2.04,0-3.38,1.64-3.38,4.02s1.34,3.97,3.38,3.97c1.55,0,2.58-.89,2.89-2.28h2.68c-.47,2.73-2.51,4.44-5.59,4.44-3.64,0-5.97-2.37-5.97-6.13Z"/>
<path class="hsi-2" d="M103.24,88.79h-2.09v-2.23h2.09v-3.36h2.56v3.36h2.94v2.23h-2.94v6.27c0,.94.33,1.29,1.29,1.29h1.79v2.23h-2.35c-2.3,0-3.29-1.08-3.29-3.27v-6.53Z"/>
<path class="hsi-2" d="M118.74,86.56h2.54v12.03h-2.23l-.28-1.53c-.75.92-1.86,1.67-3.71,1.67-2.56,0-4.74-1.36-4.74-5.47v-6.7h2.54v6.41c0,2.35.94,3.55,2.8,3.55s3.1-1.46,3.1-3.95v-6.01Z"/>
<path class="hsi-2" d="M130.42,86.56v2.37h-1.13c-2.26,0-2.98,1.76-2.98,3.62v6.04h-2.54v-12.03h2.26l.28,1.81c.61-1.01,1.57-1.81,3.55-1.81h.56Z"/>
<path class="hsi-2" d="M130.98,92.59c0-3.71,2.37-6.18,5.92-6.18s5.8,2.21,5.87,5.73c0,.31-.02.63-.07.96h-9.07v.16c.07,2.04,1.36,3.38,3.36,3.38,1.55,0,2.68-.78,3.03-2.11h2.54c-.42,2.37-2.44,4.18-5.43,4.18-3.78,0-6.15-2.44-6.15-6.13ZM140.14,91.26c-.21-1.79-1.46-2.8-3.22-2.8-1.62,0-3.01,1.08-3.19,2.8h6.41Z"/>
<path class="hsi-2" d="M151.09,98.58v-16.44h5.59c5.14,0,8.39,3.31,8.39,8.2s-3.24,8.25-8.39,8.25h-5.59ZM153.79,96.24h2.89c3.62,0,5.61-2.37,5.61-5.9s-2-5.85-5.61-5.85h-2.89v11.75Z"/>
<path class="hsi-2" d="M175.43,86.56h2.54v12.03h-2.23l-.28-1.53c-.75.92-1.86,1.67-3.71,1.67-2.56,0-4.75-1.36-4.75-5.47v-6.7h2.54v6.41c0,2.35.94,3.55,2.8,3.55s3.1-1.46,3.1-3.95v-6.01Z"/>
<path class="hsi-2" d="M187.1,86.56v2.37h-1.13c-2.26,0-2.98,1.76-2.98,3.62v6.04h-2.54v-12.03h2.26l.28,1.81c.61-1.01,1.57-1.81,3.55-1.81h.56Z"/>
<path class="hsi-2" d="M199.81,96.38v2.21h-1.34c-1.64,0-2.21-.73-2.21-1.93-.8,1.22-2.02,2.07-3.97,2.07-2.63,0-4.46-1.29-4.46-3.52,0-2.47,1.79-3.85,5.14-3.85h3.03v-.73c0-1.34-.96-2.16-2.63-2.16-1.5,0-2.51.7-2.7,1.76h-2.49c.26-2.35,2.28-3.81,5.31-3.81,3.19,0,5.03,1.53,5.03,4.37v4.82c0,.61.26.78.78.78h.52ZM196,93.23h-3.15c-1.57,0-2.44.59-2.44,1.81,0,1.01.85,1.71,2.23,1.71,2.11,0,3.34-1.25,3.36-3.1v-.42Z"/>
<path class="hsi-2" d="M213.32,92.57c0,3.69-2.4,6.15-5.69,6.15-1.88,0-3.17-.8-3.92-1.88l-.31,1.74h-2.21v-16.44h2.54v6.2c.8-1.08,2.04-1.93,3.9-1.93,3.29,0,5.69,2.28,5.69,6.15ZM210.73,92.57c0-2.35-1.41-3.99-3.52-3.99s-3.5,1.64-3.5,3.97,1.39,4.04,3.5,4.04,3.52-1.64,3.52-4.02Z"/>
<path class="hsi-2" d="M215.36,82.14h2.54v16.44h-2.54v-16.44Z"/>
<path class="hsi-2" d="M219.94,92.59c0-3.71,2.37-6.18,5.92-6.18s5.8,2.21,5.87,5.73c0,.31-.02.63-.07.96h-9.07v.16c.07,2.04,1.36,3.38,3.36,3.38,1.55,0,2.68-.78,3.03-2.11h2.54c-.42,2.37-2.44,4.18-5.43,4.18-3.78,0-6.15-2.44-6.15-6.13ZM229.1,91.26c-.21-1.79-1.46-2.8-3.22-2.8-1.62,0-3.01,1.08-3.19,2.8h6.41Z"/>
</g>
<rect class="hsi-3" x="236.82" y="91.65" width="63.18" height="1.85"/>
</g>
<g>
<g>
<path class="hsi-3" d="M110.7,67.68h-26.92c-1.03,0-1.87-.84-1.87-1.87v-17.32c0-1.48,1.64-2.37,2.88-1.57l26.92,17.32c1.57,1.01.85,3.44-1.01,3.44Z"/>
<path class="hsi-1" d="M52.99,0v14.84c0,2.22-1.12,4.3-2.98,5.52L14.46,43.64V0H0v67.68h14.46v-4.23c0-2.22,1.12-4.3,2.98-5.52l35.55-23.28v33.03h14.46V0h-14.46Z"/>
<path class="hsi-1" d="M128.31,22.2v-7.74h-31.62c-1.51,0-2.74,1.23-2.74,2.74h0c0,1.2.61,2.31,1.61,2.96l47.2,30.31v17.21l-55.23-35.46c-5.01-3.22-8.04-8.77-8.04-14.72h0C79.5,7.83,87.33,0,96.99,0h45.77v22.2h-14.46Z"/>
</g>
<g>
<polygon class="hsi-1" points="197.88 62.99 180.53 42.22 170.81 42.22 170.81 67.68 176.69 67.68 176.69 46.91 194.04 67.68 203.76 67.68 203.76 42.22 197.88 42.22 197.88 62.99"/>
<path class="hsi-1" d="M285.42,42.22h-7.86l-11.85,20.69h-5.1s-2.86-3.17-2.86-3.17c4.31-.57,7.64-4.26,7.64-8.72h0c0-4.86-3.94-8.8-8.8-8.8h-19.11s0,0,0,0v25.46h5.88v-7.86h6.83l7.11,7.86h12.67s11.52-20.12,11.52-20.12l8.79,15.35h-12.79l-2.72,4.77h25.23l-14.58-25.46ZM243.35,46.99h12.13c2.22,0,4.03,1.8,4.03,4.03h0c0,2.22-1.8,4.03-4.03,4.03h-12.13v-8.05Z"/>
<polygon class="hsi-1" points="208.48 42.22 208.48 67.68 214.36 67.68 214.36 59.81 231.31 59.81 231.31 55.04 214.36 55.04 214.36 46.99 234.44 46.99 234.44 42.22 208.48 42.22"/>
<polygon class="hsi-1" points="157.23 42.22 157.23 46.99 159.24 46.99 159.24 67.68 165.12 67.68 165.12 42.22 157.23 42.22"/>
</g>
</g>
</svg>
